<?xml version="1.0" encoding="utf-8"?>
<!-- Generator: Adobe Adobe Illustrator 24.2.0, SVG Export Plug-In . SVG Version: 6.00 Build 0)  -->
<svg version="1.1" id="Vector_layer_1_" xmlns="http://www.w3.org/2000/svg" xmlns:xlink="http://www.w3.org/1999/xlink" x="0px"
	 y="0px" width="1000px" height="1000px" viewBox="0 0 1000 1000" style="enable-background:new 0 0 1000 1000;"
	 xml:space="preserve">
<path d="M769.2,432.02c-19.32-2.06-38.49-6.25-56.76-12.89c-31.24-11.25-59.62-29.12-90.84-40.44
	c-16.77-5.49-33.9-10.64-51.54-12.31c-7.64-0.5-15.31,0.15-22.94-0.67c0.88,0.07,1.76,0.13,2.64,0.2
	c-17.01-1.17-34.11-4.18-49.88-10.84c6.03-20.14,24.79-34.76,44.59-40.15c-2.47-14.65,2.63-29.98,11.54-41.62
	c13.95-15.72,28.59-30.86,43.85-45.33c67.41-63.72,206.77-158.01,293.38-82.67c20.25,17.21,35.08,40.55,41.67,66.32
	c3.09,11.66,4.63,23.68,5.89,35.66c1.5,19.03,4.98,38.03,4.26,57.17c-1.4,34.58-21.34,65.65-45.74,89.04
	C865.11,426.24,815.25,436.71,769.2,432.02z M798,379.51c19.88-1.2,40.09-6.16,56.41-18.02c15.12-11.42,27.52-26.96,34.46-44.65
	c5.21-14.53,2.1-30.05,0.7-44.97c-1.65-14.95-2.36-30.1-5.81-44.79c-3.43-15.24-11.79-29.07-23.31-39.57
	c-46.37-44.19-132.71,9.54-175.26,38.87c-33.12,23.37-61.96,52.2-89.22,82.06c-2.34,2.39-5.04,4.49-7.75,6.41
	c38.48,6.46,74.48,21.77,109.03,39.43C728.32,370.32,762.68,381.43,798,379.51z"/>
<path d="M145.93,439.71c-39.06-0.93-68.73-20.49-81.07-58.17c-7.73-25.15-9-51.85-9.95-77.99c-0.72-45.1,4.73-95.06,38.37-128.38
	c23.02-25.15,58.64-31.36,91.08-25.51c35.1,6.47,68.67,19.53,100.79,34.88c41.57,19.49,82.24,41.09,120,67.32
	c16.39,11.13,32.28,23.01,47.43,35.78c7.94,6.88,13.1,17.01,13.47,27.53c16.92,4.95,37.87,22.35,37.89,41.19
	c-5.69,4.49-12.97,7.12-20,8.91c-12.26,3.05-25.11,2.8-37.45,0.37c-14.87-2.21-30-1.91-44.91-0.24
	c-56.16,5.94-106.7,32.32-157.09,55.84C213.5,434.4,179.49,439.99,145.93,439.71z M145.25,386.27c34.48,1.05,68.79-7.51,99.09-23.87
	c48.39-23.83,99.34-44.67,153.43-50.22c-40.04-30.18-83.73-55.03-129.06-76.32c-28.5-13.68-104.14-49.07-131.77-28.27
	c-13.5,10.47-21.37,26.62-24.67,43.12c-4.32,21.49-4.6,43.62-3.49,65.45c1.28,16.01,1.96,32.33,6.53,47.82
	C120.35,379.99,128.88,385.07,145.25,386.27z"/>
<path d="M490.6,418.73c-34.64-1.87-61.44-30.59-58.98-65.54c-0.01,0.56-0.02,1.11-0.04,1.67c1.04-31.02,22.7-53.17,51.78-61.1
	c8.24-2.2,16.68-3.43,25.18-4.12c11.06-0.45,22.33,4.11,29.54,12.59c1.56,1.67,2.96,4.26,3.84,6.17
	c6.28,4.73,11.24,11.19,14.24,18.45c13.02,31.25-0.95,70.53-31.79,85.18c0.08-0.04,0.16-0.08,0.24-0.13
	c0.03-0.02,0.06-0.03,0.41-0.22C514.49,417.21,502.42,419.47,490.6,418.73z"/>
<path d="M116.47,829.3c-28.83-33-47.26-82.78-39.37-126.6c9.78-45.98,39.53-88.61,82.38-109.2c42.82-21.64,92.62-21.8,136.6-40.16
	c6.62-2.93,12.85-6.69,18.81-10.78c13.66-9.85,24.66-22.98,33.49-37.24c21.65-37.57,37.43-79.12,67.77-111.02
	c6.48-6.57,13.9-12.19,21.86-16.84c15.35-8.4,33.56-15.95,51.25-12.95c-7.94,18.01-14.3,36.48-25.22,52.86
	c0.37-0.6,0.74-1.2,1.11-1.81c-6.76,11.82-16.2,21.68-24.01,32.76c-5.98,8.42-11.41,17.2-16.31,26.29
	c-17.02,32.69-31.73,67.64-58.46,93.87c-31.61,33.5-76.76,45.32-120.38,54.24c-22.34,4.92-45.24,9.22-65.64,20.02
	c-22.26,11.6-38.31,32.81-46.74,56.16c-4.46,11.71-5.95,24.24-7.97,36.53c-2.36,14.96-3.36,30.08-4.89,45.13
	C119.16,796.79,116.9,813,116.47,829.3z"/>
<path d="M856.56,882.59c-8.89-20.33-15.86-41.45-19.54-63.37c-2.26-13.62-2.81-27.51-6.09-40.96
	c-9.94-39.58-29.16-74.15-64.84-95.66c-25.81-15.77-55.32-24.11-81.78-38.7c-31.08-16.03-60.44-38.48-75.79-70.71
	c-10.52-21.14-14.43-44.76-16.36-68.1c-1.46-16.66-1.96-33.97-9.31-49.33c-5.69-13.12-15.24-24.07-25.98-33.36
	c-6.58-5.45-14.2-9.56-20.3-15.61c-7.81-7.62-14.6-16.34-19.09-26.25c-1.32-2.93-2.38-6.04-2.95-9.19c-0.1-0.17,0.09-0.31,0.2-0.42
	c3.63-3.6,8.42-5.73,13.21-7.35c15.18-4.68,32.18-2.33,45.93,5.47c25.81,16.11,47.27,39.86,59.09,68.02
	c9.97,22.44,11,47.2,13.08,71.3c2.42,22.64,7.66,43.65,23.8,60.61c36.96,37.02,92.21,44.58,133.86,74.55
	c25.07,17.24,45.49,40.82,58.99,68.08c15.74,31.71,27.12,67.4,25.17,103.11C885.05,839.7,874.58,864.77,856.56,882.59z"/>
<path d="M546.52,338.93c-15.67-2.49-19.4-21.72-14.92-34.65c2.07-7.3,6.94-13.09,11.82-18.69c14.16-16.59,29.37-32.49,45.43-47.14
	c19.28-19.51,47.35-29.46,74.62-26.73c-0.51,21.05-12.22,40.63-26.6,55.34c-7.31,7.06-15.3,13.4-22.5,20.59
	c-11.34,11.26-22.23,22.98-32.54,35.2C573.86,333.71,560.2,341.3,546.52,338.93z"/>
<path d="M453.37,364.99c-4.44-2.4-7.84-6.17-10.78-10.19c-4.99-6.38-10.13-12.65-15.27-18.91c-4.86-5.38-8.54-11.64-9.54-18.66
	c-3.32-21.45,15.01-35.72,35.1-27.87c10.25,3.67,16.05,13.44,22.82,21.33c3.08,3.8,6.15,7.61,9.15,11.47
	c3.03,3.7,5.72,7.59,6.98,12.27C498.74,358,474.78,377.08,453.37,364.99z"/>
</svg>
